# xmcd
#
# Track frame offsets: 
#        150
#        10795
#        26571
#        41381
#        59363
#        78866
#        91454
#        102523
#        111456
#        126187
#        139903
#        148879
#        159850
#
# Disc length: 2270 seconds
#
# Revision: 5
# Processed by: cddbd v1.5.2PL0 Copyright (c) Steve Scherf et al.
# Submitted via: ExactAudioCopy v0.99pb5
#
DISCID=ac08dc0d
DTITLE=Eagles of Death Metal - Death By Sexy
DYEAR=2006
DGENRE=Rock and Roll
TTITLE0=I Want You So Hard (Boy's Bad News)
TTITLE1=I Got a Feeling (Just Nineteen)
TTITLE2=Cherry Cola
TTITLE3=I Like To Move in the Night
TTITLE4=Solid Gold
TTITLE5=Don't Speak (I Came To Make a Bang!)
TTITLE6=Keep Your Head Up
TTITLE7=The Ballad of Queen Bee and Baby Duck
TTITLE8=Poor Doggie
TTITLE9=Chase the Devil
TTITLE10=Eagles Goth
TTITLE11=Shasta Beast
TTITLE12=Bag o' Miracles
EXTD=
EXTT0=
EXTT1=
EXTT2=
EXTT3=
EXTT4=
EXTT5=
EXTT6=
EXTT7=
EXTT8=
EXTT9=
EXTT10=
EXTT11=
EXTT12=
PLAYORDER=
